# xmcd
#
# Track frame offsets:
#	150
#	12562
#	26602
#	46587
#	67090
#	79657
#	90990
#	104135
#	117110
#	131327
#	146945
#	162180
#	176202
#	195635
#	208172
#	222627
#	235525
#	252072
#	265390
#	277757
#
# Disc length: 3916 seconds
#
# Revision: 1
# Processed by: cddbd v1.5.2PL0 Copyright (c) Steve Scherf et al.
# Submitted via: EasyCDDAExtractor 10.5.1.1
#
DISCID=210f4a14
DTITLE=Mac Wiseman - Most Requested
DYEAR=2001
DGENRE=Country
TTITLE0=Did She Mention My Name
TTITLE1=The Wild Side Of Life
TTITLE2=Take Me Back To Renfro Valley
TTITLE3=In The Pines
TTITLE4=The Bluebirds Are Singing For Me
TTITLE5=I'm Using My Bible For A Roadmap
TTITLE6=I'll Sail My Ship Alone
TTITLE7=Dreaming Of A Little Cabin
TTITLE8=May I Sleep In Your Barn Tonight, Mister
TTITLE9=Born To Lose
TTITLE10=I'll Be All Smiles Tonight
TTITLE11=Don't Be Angry
TTITLE12=Little Rosewood Casket
TTITLE13=These Hands
TTITLE14=Oklahoma Hills
TTITLE15=Shackles and Chains
TTITLE16=House Of The Rising Sun
TTITLE17=I'm Just Here To Get My Baby Out Of Jail
TTITLE18=The Baggage Coach Ahead 
TTITLE19=Kentucky
EXTD=YEAR: 2001 ID3G: 2
EXTT0=
EXTT1=
EXTT2=
EXTT3=
EXTT4=
EXTT5=
EXTT6=
EXTT7=
EXTT8=
EXTT9=
EXTT10=
EXTT11=
EXTT12=
EXTT13=
EXTT14=
EXTT15=
EXTT16=
EXTT17=
EXTT18=
EXTT19=
PLAYORDER=
